<mxfile host="Electron" modified="2023-05-09T11:49:52.531Z" agent="Mozilla/5.0 (Windows NT 10.0; Win64; x64) AppleWebKit/537.36 (KHTML, like Gecko) draw.io/21.1.2 Chrome/106.0.5249.199 Electron/21.4.3 Safari/537.36" etag="6sErSoaFrsXPbdUUXn3O" version="21.1.2" type="device">
  <diagram name="Страница 1" id="1Sl_nZ1g1N8PrJDqj42g">
    <mxGraphModel dx="404" dy="879" grid="1" gridSize="10" guides="1" tooltips="1" connect="1" arrows="1" fold="1" page="1" pageScale="1" pageWidth="827" pageHeight="1169" math="0" shadow="0">
      <root>
        <mxCell id="0" />
        <mxCell id="1" parent="0" />
        <mxCell id="bT7lZ-O7QSs4i1S0B8-C-22" style="edgeStyle=none;curved=1;rounded=1;orthogonalLoop=1;jettySize=auto;html=1;exitX=0.5;exitY=1;exitDx=0;exitDy=0;entryX=1;entryY=0.5;entryDx=0;entryDy=0;strokeWidth=1;fontFamily=Lucida Console;fontSize=12;fontColor=#F0F0F0;startSize=8;endSize=8;" parent="1" edge="1">
          <mxGeometry relative="1" as="geometry">
            <Array as="points">
              <mxPoint x="-140" y="1090" />
              <mxPoint x="-230" y="500" />
            </Array>
            <mxPoint x="-380" y="920" as="sourcePoint" />
          </mxGeometry>
        </mxCell>
        <mxCell id="bT7lZ-O7QSs4i1S0B8-C-75" style="edgeStyle=none;curved=1;rounded=0;orthogonalLoop=1;jettySize=auto;html=1;exitX=0.5;exitY=1;exitDx=0;exitDy=0;fontSize=12;startSize=8;endSize=8;" parent="1" source="bT7lZ-O7QSs4i1S0B8-C-72" target="bT7lZ-O7QSs4i1S0B8-C-74" edge="1">
          <mxGeometry relative="1" as="geometry" />
        </mxCell>
        <mxCell id="bT7lZ-O7QSs4i1S0B8-C-72" value="" style="verticalLabelPosition=bottom;verticalAlign=top;html=1;shape=process;whiteSpace=wrap;rounded=1;size=0.14;arcSize=6;strokeWidth=1;fontFamily=Lucida Console;fontSize=16;fillColor=#f8cecc;strokeColor=#b85450;" parent="1" vertex="1">
          <mxGeometry x="1170.5" y="30" width="140" height="60" as="geometry" />
        </mxCell>
        <mxCell id="bT7lZ-O7QSs4i1S0B8-C-73" value="Dijkstra" style="text;strokeColor=none;fillColor=none;html=1;align=center;verticalAlign=middle;whiteSpace=wrap;rounded=0;fontSize=16;fontFamily=Lucida Console;fontColor=#000000;" parent="1" vertex="1">
          <mxGeometry x="1210.5" y="45" width="60" height="30" as="geometry" />
        </mxCell>
        <mxCell id="bT7lZ-O7QSs4i1S0B8-C-77" style="edgeStyle=none;curved=1;rounded=0;orthogonalLoop=1;jettySize=auto;html=1;exitX=0.5;exitY=1;exitDx=0;exitDy=0;exitPerimeter=0;fontSize=12;startSize=8;endSize=8;" parent="1" source="bT7lZ-O7QSs4i1S0B8-C-74" target="bT7lZ-O7QSs4i1S0B8-C-76" edge="1">
          <mxGeometry relative="1" as="geometry" />
        </mxCell>
        <mxCell id="bT7lZ-O7QSs4i1S0B8-C-74" value="Start" style="strokeWidth=1;html=1;shape=mxgraph.flowchart.terminator;whiteSpace=wrap;fontSize=16;rounded=1;fillColor=#ffe6cc;strokeColor=#d79b00;" parent="1" vertex="1">
          <mxGeometry x="1170.5" y="130" width="140" height="60" as="geometry" />
        </mxCell>
        <mxCell id="bT7lZ-O7QSs4i1S0B8-C-79" style="edgeStyle=none;curved=1;rounded=0;orthogonalLoop=1;jettySize=auto;html=1;exitX=0.5;exitY=1;exitDx=0;exitDy=0;fontSize=12;startSize=8;endSize=8;entryX=0.5;entryY=0;entryDx=0;entryDy=0;" parent="1" source="bT7lZ-O7QSs4i1S0B8-C-76" target="HIFzTfO--KmBhxd364g5-1" edge="1">
          <mxGeometry relative="1" as="geometry">
            <mxPoint x="1241.75" y="340" as="targetPoint" />
          </mxGeometry>
        </mxCell>
        <mxCell id="bT7lZ-O7QSs4i1S0B8-C-76" value="&lt;div&gt;Инициализировать&amp;nbsp;&lt;/div&gt;&lt;div&gt;сеть&amp;nbsp;&lt;span style=&quot;background-color: initial;&quot;&gt;нод&lt;/span&gt;&lt;/div&gt;" style="shape=parallelogram;html=1;strokeWidth=1;perimeter=parallelogramPerimeter;whiteSpace=wrap;rounded=1;arcSize=12;size=0.23;fontFamily=Lucida Console;fontSize=16;fillColor=#f5f5f5;strokeColor=#666666;fontColor=#333333;" parent="1" vertex="1">
          <mxGeometry x="1113" y="230" width="255" height="60" as="geometry" />
        </mxCell>
        <mxCell id="bT7lZ-O7QSs4i1S0B8-C-95" value="END" style="strokeWidth=1;html=1;shape=mxgraph.flowchart.terminator;whiteSpace=wrap;fontSize=16;rounded=1;fillColor=#ffe6cc;strokeColor=#d79b00;" parent="1" vertex="1">
          <mxGeometry x="1171" y="1310" width="140" height="60" as="geometry" />
        </mxCell>
        <mxCell id="HIFzTfO--KmBhxd364g5-3" style="edgeStyle=none;curved=1;rounded=0;orthogonalLoop=1;jettySize=auto;html=1;exitX=0.5;exitY=1;exitDx=0;exitDy=0;entryX=0.5;entryY=0;entryDx=0;entryDy=0;fontSize=12;startSize=8;endSize=8;" edge="1" parent="1" source="HIFzTfO--KmBhxd364g5-1" target="HIFzTfO--KmBhxd364g5-2">
          <mxGeometry relative="1" as="geometry" />
        </mxCell>
        <mxCell id="HIFzTfO--KmBhxd364g5-1" value="&lt;div&gt;Выбрать ближайшую непосещенную ноду&lt;/div&gt;&lt;div&gt;Назначить ее как ноду С&lt;/div&gt;" style="rounded=1;whiteSpace=wrap;html=1;absoluteArcSize=1;arcSize=14;strokeWidth=1;fontFamily=Lucida Console;fontSize=16;fillColor=#f5f5f5;strokeColor=#666666;fontColor=#333333;align=center;" vertex="1" parent="1">
          <mxGeometry x="1132.38" y="340" width="216.25" height="90" as="geometry" />
        </mxCell>
        <mxCell id="HIFzTfO--KmBhxd364g5-6" value="&lt;font color=&quot;#f02b2b&quot;&gt;No&lt;/font&gt;" style="edgeStyle=none;curved=1;rounded=0;orthogonalLoop=1;jettySize=auto;html=1;exitX=0.5;exitY=1;exitDx=0;exitDy=0;fontSize=12;startSize=8;endSize=8;fillColor=#f8cecc;strokeColor=#b85450;" edge="1" parent="1" source="HIFzTfO--KmBhxd364g5-2" target="HIFzTfO--KmBhxd364g5-5">
          <mxGeometry relative="1" as="geometry" />
        </mxCell>
        <mxCell id="HIFzTfO--KmBhxd364g5-20" value="&lt;font color=&quot;#009900&quot;&gt;YES&lt;/font&gt;" style="edgeStyle=none;rounded=1;orthogonalLoop=1;jettySize=auto;html=1;exitX=0;exitY=0.5;exitDx=0;exitDy=0;entryX=0;entryY=0.5;entryDx=0;entryDy=0;fontSize=12;startSize=8;endSize=8;fillColor=#d5e8d4;strokeColor=#82b366;" edge="1" parent="1" source="HIFzTfO--KmBhxd364g5-2" target="HIFzTfO--KmBhxd364g5-19">
          <mxGeometry relative="1" as="geometry">
            <Array as="points">
              <mxPoint x="1080" y="515" />
              <mxPoint x="1080" y="1144" />
            </Array>
          </mxGeometry>
        </mxCell>
        <mxCell id="HIFzTfO--KmBhxd364g5-2" value="C==конечная" style="rhombus;whiteSpace=wrap;html=1;fontSize=16;fillColor=#d5e8d4;strokeColor=#82b366;" vertex="1" parent="1">
          <mxGeometry x="1174.88" y="470" width="131.25" height="90" as="geometry" />
        </mxCell>
        <mxCell id="HIFzTfO--KmBhxd364g5-5" value="&lt;div&gt;Для каждой&lt;/div&gt;&lt;div&gt;соседней ноды N&lt;/div&gt;&lt;div&gt;с длиной связи D&lt;/div&gt;" style="shape=trapezoid;perimeter=trapezoidPerimeter;whiteSpace=wrap;html=1;fixedSize=1;fontSize=16;fillColor=#f5f5f5;fontColor=#333333;strokeColor=#666666;" vertex="1" parent="1">
          <mxGeometry x="1147" y="620" width="187" height="80" as="geometry" />
        </mxCell>
        <mxCell id="HIFzTfO--KmBhxd364g5-10" value="&lt;font color=&quot;#009900&quot;&gt;YES&lt;/font&gt;" style="edgeStyle=none;rounded=1;orthogonalLoop=1;jettySize=auto;html=1;exitX=1;exitY=0.5;exitDx=0;exitDy=0;entryX=0.5;entryY=0;entryDx=0;entryDy=0;fontSize=12;startSize=8;endSize=8;fillColor=#d5e8d4;strokeColor=#82b366;" edge="1" parent="1" source="HIFzTfO--KmBhxd364g5-7" target="HIFzTfO--KmBhxd364g5-8">
          <mxGeometry x="0.0007" relative="1" as="geometry">
            <Array as="points">
              <mxPoint x="1380" y="785" />
            </Array>
            <mxPoint as="offset" />
          </mxGeometry>
        </mxCell>
        <mxCell id="HIFzTfO--KmBhxd364g5-13" value="&lt;font color=&quot;#f02b2b&quot;&gt;YES&lt;/font&gt;" style="edgeStyle=none;rounded=1;orthogonalLoop=1;jettySize=auto;html=1;exitX=0;exitY=0.5;exitDx=0;exitDy=0;entryX=0;entryY=0.5;entryDx=0;entryDy=0;fontSize=12;startSize=8;endSize=8;fillColor=#f8cecc;strokeColor=#b85450;" edge="1" parent="1" source="HIFzTfO--KmBhxd364g5-7" target="HIFzTfO--KmBhxd364g5-11">
          <mxGeometry relative="1" as="geometry">
            <Array as="points">
              <mxPoint x="1120" y="785" />
              <mxPoint x="1120" y="985" />
            </Array>
          </mxGeometry>
        </mxCell>
        <mxCell id="HIFzTfO--KmBhxd364g5-7" value="N &amp;gt; C + D" style="rhombus;whiteSpace=wrap;html=1;fontSize=16;fillColor=#d5e8d4;strokeColor=#82b366;" vertex="1" parent="1">
          <mxGeometry x="1175" y="740" width="131.25" height="90" as="geometry" />
        </mxCell>
        <mxCell id="HIFzTfO--KmBhxd364g5-14" style="edgeStyle=none;curved=1;rounded=0;orthogonalLoop=1;jettySize=auto;html=1;exitX=0.5;exitY=1;exitDx=0;exitDy=0;entryX=0.5;entryY=0;entryDx=0;entryDy=0;fontSize=12;startSize=8;endSize=8;" edge="1" parent="1" source="HIFzTfO--KmBhxd364g5-8" target="HIFzTfO--KmBhxd364g5-9">
          <mxGeometry relative="1" as="geometry" />
        </mxCell>
        <mxCell id="HIFzTfO--KmBhxd364g5-8" value="N=C+D" style="rounded=1;whiteSpace=wrap;html=1;absoluteArcSize=1;arcSize=14;strokeWidth=1;fontFamily=Lucida Console;fontSize=16;fillColor=#f5f5f5;strokeColor=#666666;fontColor=#333333;align=center;" vertex="1" parent="1">
          <mxGeometry x="1335" y="820" width="90" height="40" as="geometry" />
        </mxCell>
        <mxCell id="HIFzTfO--KmBhxd364g5-15" style="edgeStyle=none;rounded=1;orthogonalLoop=1;jettySize=auto;html=1;exitX=0.5;exitY=1;exitDx=0;exitDy=0;entryX=1;entryY=0.5;entryDx=0;entryDy=0;fontSize=12;startSize=8;endSize=8;" edge="1" parent="1" source="HIFzTfO--KmBhxd364g5-9" target="HIFzTfO--KmBhxd364g5-11">
          <mxGeometry relative="1" as="geometry">
            <Array as="points">
              <mxPoint x="1380" y="985" />
            </Array>
          </mxGeometry>
        </mxCell>
        <mxCell id="HIFzTfO--KmBhxd364g5-9" value="N.P=C" style="rounded=1;whiteSpace=wrap;html=1;absoluteArcSize=1;arcSize=14;strokeWidth=1;fontFamily=Lucida Console;fontSize=16;fillColor=#f5f5f5;strokeColor=#666666;fontColor=#333333;align=center;" vertex="1" parent="1">
          <mxGeometry x="1335" y="890" width="90" height="40" as="geometry" />
        </mxCell>
        <mxCell id="HIFzTfO--KmBhxd364g5-16" style="edgeStyle=none;rounded=1;orthogonalLoop=1;jettySize=auto;html=1;exitX=1;exitY=1;exitDx=0;exitDy=0;entryX=1;entryY=0.5;entryDx=0;entryDy=0;fontSize=12;startSize=8;endSize=8;" edge="1" parent="1" source="HIFzTfO--KmBhxd364g5-11" target="HIFzTfO--KmBhxd364g5-5">
          <mxGeometry relative="1" as="geometry">
            <Array as="points">
              <mxPoint x="1440" y="1003" />
              <mxPoint x="1440" y="660" />
            </Array>
          </mxGeometry>
        </mxCell>
        <mxCell id="HIFzTfO--KmBhxd364g5-17" style="edgeStyle=none;curved=1;rounded=0;orthogonalLoop=1;jettySize=auto;html=1;exitX=0.5;exitY=1;exitDx=0;exitDy=0;fontSize=12;startSize=8;endSize=8;" edge="1" parent="1" source="HIFzTfO--KmBhxd364g5-11" target="HIFzTfO--KmBhxd364g5-12">
          <mxGeometry relative="1" as="geometry" />
        </mxCell>
        <mxCell id="HIFzTfO--KmBhxd364g5-11" value="" style="ellipse;whiteSpace=wrap;html=1;aspect=fixed;fontSize=16;fillColor=#f5f5f5;fontColor=#333333;strokeColor=#666666;" vertex="1" parent="1">
          <mxGeometry x="1216" y="960" width="50" height="50" as="geometry" />
        </mxCell>
        <mxCell id="HIFzTfO--KmBhxd364g5-18" style="edgeStyle=none;rounded=1;orthogonalLoop=1;jettySize=auto;html=1;exitX=1;exitY=0.5;exitDx=0;exitDy=0;entryX=1;entryY=0.5;entryDx=0;entryDy=0;fontSize=12;startSize=8;endSize=8;" edge="1" parent="1" source="HIFzTfO--KmBhxd364g5-12" target="HIFzTfO--KmBhxd364g5-1">
          <mxGeometry relative="1" as="geometry">
            <Array as="points">
              <mxPoint x="1480" y="1055" />
              <mxPoint x="1480" y="385" />
            </Array>
          </mxGeometry>
        </mxCell>
        <mxCell id="HIFzTfO--KmBhxd364g5-12" value="" style="ellipse;whiteSpace=wrap;html=1;aspect=fixed;fontSize=16;fillColor=#f5f5f5;fontColor=#333333;strokeColor=#666666;" vertex="1" parent="1">
          <mxGeometry x="1216" y="1030" width="50" height="50" as="geometry" />
        </mxCell>
        <mxCell id="HIFzTfO--KmBhxd364g5-23" style="edgeStyle=none;curved=1;rounded=0;orthogonalLoop=1;jettySize=auto;html=1;exitX=0.5;exitY=1;exitDx=0;exitDy=0;entryX=0.5;entryY=0;entryDx=0;entryDy=0;fontSize=12;startSize=8;endSize=8;" edge="1" parent="1" source="HIFzTfO--KmBhxd364g5-19" target="HIFzTfO--KmBhxd364g5-22">
          <mxGeometry relative="1" as="geometry" />
        </mxCell>
        <mxCell id="HIFzTfO--KmBhxd364g5-19" value="Обратить порядок" style="rounded=1;whiteSpace=wrap;html=1;absoluteArcSize=1;arcSize=14;strokeWidth=1;fontFamily=Lucida Console;fontSize=16;fillColor=#f5f5f5;strokeColor=#666666;fontColor=#333333;align=center;" vertex="1" parent="1">
          <mxGeometry x="1156.51" y="1119" width="168" height="50" as="geometry" />
        </mxCell>
        <mxCell id="HIFzTfO--KmBhxd364g5-24" style="edgeStyle=none;curved=1;rounded=0;orthogonalLoop=1;jettySize=auto;html=1;exitX=0.5;exitY=1;exitDx=0;exitDy=0;fontSize=12;startSize=8;endSize=8;" edge="1" parent="1" source="HIFzTfO--KmBhxd364g5-22" target="bT7lZ-O7QSs4i1S0B8-C-95">
          <mxGeometry relative="1" as="geometry" />
        </mxCell>
        <mxCell id="HIFzTfO--KmBhxd364g5-22" value="Список нод в пути" style="shape=parallelogram;html=1;strokeWidth=1;perimeter=parallelogramPerimeter;whiteSpace=wrap;rounded=1;arcSize=12;size=0.23;fontFamily=Lucida Console;fontSize=16;fillColor=#f5f5f5;strokeColor=#666666;fontColor=#333333;" vertex="1" parent="1">
          <mxGeometry x="1122" y="1210" width="237" height="50" as="geometry" />
        </mxCell>
      </root>
    </mxGraphModel>
  </diagram>
</mxfile>
